<svg xmlns="http://www.w3.org/2000/svg" width="379" height="138" viewBox="0 0 379 138"><g><g><path fill="#fff" d="M48 127.798v10.192H0v-10.192h2.526V77.052l14.31-2.623L24 59.98l7.163 14.448 14.31 2.624v50.746zm-35.367 0h10.104V98.013l-10.074 5.093zm12.63 0h10.104l-.03-24.692-10.074-5.093zm17.684 0V81.191l-7.481 7.547 2.397 13.58.03 25.48zM6.387 78.936l8.867 8.942-2.165 12.165 10.91-5.517 10.912 5.514-2.165-12.165 8.866-8.941-12.144-2.227L24 65.677l-5.468 11.031zm-1.334 48.862h5.055l.049-25.703 2.379-13.357-7.483-7.547zm40.42 2.548H2.527v5.096h42.948zm-30.315-25.478h2.526v15.287h-2.526zm0 17.835h2.526v2.548h-2.526zm12.631-20.383h2.527v17.835h-2.527zm0 20.383h2.527v2.548h-2.527z"/></g><g><path fill="#fff" d="M301 127.798v10.192h-48v-10.192h2.526V77.052l14.31-2.623L277 59.98l7.163 14.448 14.31 2.624v50.746zm-35.367 0h10.104V98.013l-10.074 5.093zm12.63 0h10.104l-.03-24.692-10.074-5.093zm17.684 0V81.191l-7.481 7.547 2.397 13.58.03 25.48zm-36.56-48.862l8.867 8.942-2.165 12.165L277 94.526l10.911 5.514-2.165-12.165 8.866-8.941-12.144-2.227L277 65.677l-5.468 11.031zm-1.334 48.862h5.055l.049-25.703 2.378-13.357-7.482-7.547zm40.42 2.548h-42.947v5.096h42.948zm-30.315-25.478h2.526v15.287h-2.526zm0 17.835h2.526v2.548h-2.526zm12.631-20.383h2.527v17.835h-2.527zm0 20.383h2.527v2.548h-2.527z"/></g><g><path fill="#fff" d="M129 127.798v10.192H81v-10.192h2.526V47.052l14.31-2.623L105 29.98l7.163 14.448 14.31 2.624v80.746zm-35.367 0h10.104V68.013l-10.074 5.093zm12.63 0h10.104l-.03-54.692-10.074-5.093zm17.684 0V51.191l-7.481 7.547 2.397 13.58.03 55.48zm-36.56-78.862l8.867 8.942-2.165 12.165 10.91-5.517 10.912 5.514-2.165-12.165 8.866-8.941-12.144-2.227L105 35.677l-5.468 11.031zm-1.334 78.862h5.055l.049-55.703 2.378-13.357-7.482-7.547zm40.42 2.548H83.527v5.096h42.948zM96.159 74.868h2.526v45.287h-2.526zm0 47.835h2.526v2.548h-2.526zm12.631-50.383h2.527v47.835h-2.527zm0 50.383h2.527v2.548h-2.527z"/></g><g><path fill="#fff" d="M379 127.798v10.192h-48v-10.192h2.526V47.052l14.31-2.623L355 29.98l7.163 14.448 14.31 2.624v80.746zm-35.367 0h10.104V68.013l-10.074 5.093zm12.63 0h10.104l-.03-54.692-10.074-5.093zm17.684 0V51.191l-7.481 7.547 2.397 13.58.03 55.48zm-36.56-78.862l8.867 8.942-2.165 12.165 10.91-5.517 10.912 5.514-2.165-12.165 8.866-8.941-12.144-2.227L355 35.677l-5.468 11.031zm-1.334 78.862h5.055l.049-55.703 2.379-13.357-7.483-7.547zm40.42 2.548h-42.947v5.096h42.948zm-30.315-55.478h2.526v45.287h-2.526zm0 47.835h2.526v2.548h-2.526zm12.631-50.383h2.527v47.835h-2.527zm0 50.383h2.527v2.548h-2.527z"/></g><g><path fill="#fff" d="M220 127.798v10.192h-48v-10.192h2.526V17.052l14.31-2.623L196-.02l7.163 14.448 14.31 2.624v110.746zm-35.367 0h10.104V38.013l-10.074 5.093zm12.63 0h10.104l-.03-84.692-10.074-5.093zm17.684 0V21.191l-7.481 7.547 2.397 13.581.03 85.48zm-36.56-108.862l8.867 8.942-2.165 12.165 10.91-5.517 10.912 5.514-2.165-12.165 8.866-8.941-12.144-2.227L196 5.677l-5.468 11.031zm-1.334 108.862h5.055l.049-85.703 2.378-13.357-7.482-7.547zm40.42 2.548h-42.947v5.096h42.948zm-30.315-85.478h2.526v75.287h-2.526zm0 77.835h2.526v2.548h-2.526zm12.631-80.383h2.527v77.835h-2.527zm0 80.383h2.527v2.548h-2.527z"/></g></g></svg>