<?xml version="1.0" encoding="utf-8"?>
<!-- Generator: Adobe Illustrator 16.0.0, SVG Export Plug-In . SVG Version: 6.00 Build 0)  -->
<!DOCTYPE svg PUBLIC "-//W3C//DTD SVG 1.1//EN" "http://www.w3.org/Graphics/SVG/1.1/DTD/svg11.dtd">
<svg version="1.1" id="Layer_1" xmlns="http://www.w3.org/2000/svg" xmlns:xlink="http://www.w3.org/1999/xlink" x="0px" y="0px"
	 width="40.995px" height="74.996px" viewBox="0 0 40.995 74.996" enable-background="new 0 0 40.995 74.996" xml:space="preserve">
<g>
	<path fill="#DC2C3D" d="M34.867,0H6.127C2.749,0,0,2.743,0,6.116v45.872c0,3.372,2.749,6.116,6.127,6.116h0.25
		c-0.355,0.772-0.542,1.615-0.542,2.476c0,2.256,1.283,4.289,3.236,5.299c-0.588,0.938-0.903,2.021-0.903,3.147
		c0,3.291,2.684,5.97,5.982,5.97h9.922V37.425c0-1.364,1.111-2.475,2.479-2.475s2.479,1.11,2.479,2.475v14.783
		c0,3.291,2.684,5.97,5.981,5.97s5.981-2.679,5.981-5.97V6.116C40.995,2.743,38.245,0,34.867,0z M6.127,3.495h28.74
		c1.448,0,2.626,1.176,2.626,2.621v3.058H3.501V6.116C3.501,4.671,4.679,3.495,6.127,3.495z M35.013,54.683
		c-1.368,0-2.479-1.109-2.479-2.475v-3.424h4.959v3.424C37.493,53.573,36.381,54.683,35.013,54.683z M11.816,58.104h8.755v4.951
		h-8.755c-1.368,0-2.48-1.11-2.48-2.476S10.449,58.104,11.816,58.104z M14.15,66.551h6.421v4.95H14.15
		c-1.368,0-2.481-1.11-2.481-2.475C11.669,67.661,12.782,66.551,14.15,66.551z M6.127,54.609c-1.448,0-2.626-1.176-2.626-2.621
		v-3.204h17.07v5.825H6.127z M20.571,37.426v7.864H3.501V12.669h33.992v32.62h-4.959v-7.863c0-3.291-2.684-5.97-5.981-5.97
		S20.571,34.135,20.571,37.426z"/>
	<path fill="#DC2C3D" d="M25.993,4.951H15.002v3.495h10.991V4.951z"/>
</g>
</svg>
