<?xml version="1.0" encoding="utf-8"?>
<!-- Generator: Adobe Illustrator 16.0.0, SVG Export Plug-In . SVG Version: 6.00 Build 0)  -->
<!DOCTYPE svg PUBLIC "-//W3C//DTD SVG 1.1//EN" "http://www.w3.org/Graphics/SVG/1.1/DTD/svg11.dtd">
<svg version="1.1" id="Слой_1" xmlns="http://www.w3.org/2000/svg" xmlns:xlink="http://www.w3.org/1999/xlink" x="0px" y="0px"
	 width="217px" height="106px" viewBox="0 0 217 106" enable-background="new 0 0 217 106" xml:space="preserve">
<g>
	<path fill="#ED1C24" d="M134.455,14.688v27.371c2.5-2.5,5.204-4.375,8.11-5.626c2.906-1.25,6.015-1.876,9.327-1.876
		c7.197,0,13.313,2.721,18.349,8.161s7.553,12.419,7.553,20.935c0,8.211-2.602,15.08-7.806,20.604
		c-5.204,5.524-11.371,8.288-18.501,8.288c-3.176,0-6.133-0.566-8.871-1.699c-2.737-1.131-5.457-2.981-8.161-5.55v5.829h-13.737
		V14.688H134.455z M149.002,47.33c-4.359,0-7.975,1.487-10.847,4.461s-4.309,6.859-4.309,11.658c0,4.9,1.436,8.862,4.309,11.887
		s6.488,4.537,10.847,4.537c4.224,0,7.781-1.538,10.67-4.613s4.334-6.995,4.334-11.76c0-4.73-1.419-8.608-4.258-11.633
		C156.909,48.843,153.327,47.33,149.002,47.33z"/>
	<path fill="#ED1C24" d="M194.646,13.268c2.425,0,4.507,0.879,6.243,2.637c1.732,1.757,2.602,3.886,2.602,6.387
		c0,2.467-0.857,4.57-2.577,6.311c-1.719,1.74-3.776,2.61-6.167,2.61c-2.458,0-4.558-0.888-6.294-2.661
		c-1.736-1.774-2.602-3.928-2.602-6.463c0-2.434,0.857-4.512,2.576-6.234C190.148,14.13,192.222,13.268,194.646,13.268z
		 M187.728,35.977h13.838v55.148h-13.838V35.977z"/>
</g>
<rect y="0.25" fill="#1F1F1F" width="107.594" height="105.972"/>
<g>
	<path fill="#FFFFFF" d="M20.233,13.227c2.424,0,4.507,0.878,6.243,2.635c1.732,1.758,2.602,3.887,2.602,6.387
		c0,2.467-0.857,4.57-2.577,6.311s-3.776,2.611-6.167,2.611c-2.458,0-4.558-0.887-6.293-2.662c-1.736-1.773-2.603-3.928-2.603-6.462
		c0-2.433,0.857-4.511,2.577-6.235C15.734,14.088,17.809,13.227,20.233,13.227z M13.314,35.934h13.838v55.149H13.314V35.934z"/>
	<path fill="#FFFFFF" d="M80.425,14.645h13.838v76.438H80.425v-5.829c-2.699,2.568-5.411,4.418-8.127,5.551
		c-2.716,1.131-5.661,1.697-8.833,1.697c-7.122,0-13.284-2.762-18.48-8.287c-5.2-5.525-7.797-12.394-7.797-20.605
		c0-8.516,2.513-15.493,7.544-20.934c5.031-5.44,11.139-8.16,18.328-8.16c3.307,0,6.412,0.625,9.313,1.875
		c2.902,1.25,5.584,3.125,8.051,5.626V14.645z M65.878,47.289c-4.275,0-7.832,1.512-10.657,4.536
		c-2.83,3.024-4.245,6.901-4.245,11.633c0,4.765,1.44,8.685,4.316,11.76c2.881,3.075,6.425,4.612,10.637,4.612
		c4.346,0,7.949-1.512,10.809-4.537c2.864-3.023,4.296-6.986,4.296-11.886c0-4.798-1.432-8.685-4.296-11.658
		C73.878,48.775,70.258,47.289,65.878,47.289z"/>
</g>
</svg>
