<?xml version="1.0" encoding="utf-8"?>
<!-- Generator: Adobe Illustrator 21.1.0, SVG Export Plug-In . SVG Version: 6.00 Build 0)  -->
<svg version="1.1" id="Слой_1" xmlns="http://www.w3.org/2000/svg" xmlns:xlink="http://www.w3.org/1999/xlink" x="0px" y="0px"
	 viewBox="0 0 617.4 308.7" style="enable-background:new 0 0 617.4 308.7;" xml:space="preserve">
<style type="text/css">
	.st0{display:none;fill:#FFFFFF;}
	.st1{fill:#181818;}
	.st2{fill:#FFFFFF;}
	.st3{fill:#FF283C;}
</style>
<g id="Слой_2">
</g>
<path class="st0" d="M1466.6,80.1v-2.6c-2.6,5.8-6.5,10.3-11.6,13.5s-10.8,4.8-17.1,5c-13.9,0.3-24.7-4.5-32.5-14.2
	s-11.7-21.7-11.7-36c0-9.2,1.9-17.6,5.8-25.2c3.9-7.5,9-13.3,15.5-17.2c6.4-4,13.6-6.3,21.7-7.1s16.3,1,24.6,5.4v-52.9h27.7v113
	c0,0.5,0,1.6,0,3.3c0,1.7,0,2.6,0,3c0,0.3,0.1,1.1,0.2,2.3c0.1,1.2,0.3,1.9,0.5,2.2c0.2,0.3,0.5,0.7,1,1.4c0.5,0.7,1,1.1,1.6,1.2
	s1.4,0.3,2.4,0.5s2.1,0.2,3.3,0.1l0.2,18c-4.9,0.9-9.6,1.5-14.2,1.6s-8.6-1.1-12-3.7C1468.5,89.1,1466.7,85.2,1466.6,80.1z
	 M1462,49.5V25c-9.9-5.9-19.2-6.9-27.8-2.9c-8.7,4-13,11.9-13,23.7c0,7.4,1.7,13.5,5.3,18.3c3.5,4.8,8.8,7.2,15.8,7.2
	c5.8,0,10.6-2.1,14.3-6.3C1460.2,60.8,1462,55.6,1462,49.5z"/>
<rect class="st1" width="308.7" height="308.7"/>
<rect x="308.7" class="st2" width="308.7" height="308.7"/>
<path class="st2" d="M58.5,40.2c7,0,13,2.5,18,7.6S84,59,84,66.2c0,7.1-2.5,13.2-7.4,18.2s-10.9,7.5-17.8,7.5
	c-7.1,0-13.1-2.6-18.1-7.7s-7.5-11.3-7.5-18.6c0-7,2.5-13,7.4-17.9S51.5,40.2,58.5,40.2z M38.6,105.5h39.8v158.8H38.6V105.5z"/>
<path class="st2" d="M231.8,44.3h39.8v220.1h-39.8v-16.8c-7.8,7.4-15.6,12.7-23.4,16c-7.8,3.3-16.3,4.9-25.4,4.9
	c-20.5,0-38.2-8-53.2-23.9s-22.4-35.7-22.4-59.3c0-24.5,7.2-44.6,21.7-60.3s32.1-23.5,52.8-23.5c9.5,0,18.5,1.8,26.8,5.4
	c8.4,3.6,16.1,9,23.2,16.2V44.3H231.8z M189.9,138.2c-12.3,0-22.5,4.4-30.7,13.1c-8.1,8.7-12.2,19.9-12.2,33.5
	c0,13.7,4.1,25,12.4,33.9c8.3,8.9,18.5,13.3,30.6,13.3c12.5,0,22.9-4.4,31.1-13.1c8.2-8.7,12.4-20.1,12.4-34.2
	c0-13.8-4.1-25-12.4-33.6C212.9,142.5,202.5,138.2,189.9,138.2z"/>
<path class="st3" d="M384.4,44.3v78.8c7.2-7.2,15-12.6,23.3-16.2c8.4-3.6,17.3-5.4,26.9-5.4c20.7,0,38.3,7.8,52.8,23.5
	s21.7,35.8,21.7,60.3c0,23.6-7.5,43.4-22.5,59.3s-32.7,23.9-53.3,23.9c-9.1,0-17.7-1.6-25.5-4.9c-7.9-3.3-15.7-8.6-23.5-16v16.8
	h-39.5V44.3H384.4z M426.3,138.2c-12.5,0-23,4.3-31.2,12.8c-8.3,8.6-12.4,19.8-12.4,33.6c0,14.1,4.1,25.5,12.4,34.2
	s18.7,13.1,31.2,13.1c12.2,0,22.4-4.4,30.7-13.3c8.3-8.9,12.5-20.1,12.5-33.9c0-13.6-4.1-24.8-12.3-33.5
	C449.1,142.6,438.8,138.2,426.3,138.2z"/>
<path class="st3" d="M557.7,40.2c7,0,13,2.5,18,7.6s7.5,11.2,7.5,18.4c0,7.1-2.5,13.2-7.4,18.2s-10.9,7.5-17.8,7.5
	c-7.1,0-13.1-2.6-18.1-7.7s-7.5-11.3-7.5-18.6c0-7,2.5-13,7.4-17.9S550.7,40.2,557.7,40.2z M537.8,105.5h39.8v158.8h-39.8V105.5z"/>
</svg>
