<svg xmlns="http://www.w3.org/2000/svg" xmlns:xlink="http://www.w3.org/1999/xlink" width="20" height="28" viewBox="0 0 20 28"><defs><path id="a" d="M1365 7945.9v19.2c0 1.6-1.3 2.9-2.9 2.9h-10.2a2.9 2.9 0 0 1-2.9-2.9v-19.2c0-1.6 1.3-2.9 2.9-2.9h10.2c1.6 0 2.9 1.3 2.9 2.9zm-1.8.99c0-1.18-.95-2.13-2.12-2.13h-8.22c-1.18 0-2.13.95-2.13 2.13v17.22c0 1.17.95 2.12 2.13 2.12h8.22c1.17 0 2.12-.95 2.12-2.12zm-10.2-.56h7.92c.4 0 .71.32.71.7v15.36c0 .39-.31.7-.7.7H1353a.7.7 0 0 1-.71-.7v-15.35c0-.4.32-.71.7-.71zm3.97 17.55a1.02 1.02 0 1 1 0 2.04 1.02 1.02 0 0 1 0-2.04z"/></defs><use fill="#dc2c3d" xlink:href="#a" transform="translate(-1347 -7941)"/></svg>