<svg xmlns="http://www.w3.org/2000/svg" xmlns:xlink="http://www.w3.org/1999/xlink" width="30" height="27" viewBox="0 0 30 27"><defs><path id="a" d="M1369.91 7849.46c.2.3.05.54-.3.54h-6.74c-.35 0-.8-.25-.98-.54l-2.36-3.73c-.96.71-1.8 1.06-2.54 1.06-.73 0-1.57-.34-2.53-1.04l-2.34 3.7c-.2.3-.64.55-1 .55h-6.72c-.36 0-.5-.25-.31-.54l5.27-8.35c.1-.14.23-.26.4-.36a8.87 8.87 0 0 1-2.09-5.7c0-5 4.17-9.05 9.3-9.05 5.14 0 9.3 4.05 9.3 9.05 0 2.15-.77 4.13-2.06 5.68.18.1.33.23.43.38zm-5.93-14.46a7 7 0 1 0-13.98.02 7 7 0 0 0 13.98-.02zm-3.87.05a3.1 3.1 0 0 1-3.14 3.05 3.1 3.1 0 0 1-3.13-3.05 3.1 3.1 0 0 1 3.13-3.05 3.1 3.1 0 0 1 3.14 3.05zm-2.49-2.32c-.61-.6-1.78-.42-2.62.4-.84.8-1.02 1.95-.4 2.55.6.6 3.64-2.35 3.02-2.95z"/></defs><use fill="#dc2c3d" xlink:href="#a" transform="translate(-1342 -7824)"/></svg>