<?xml version="1.0" encoding="utf-8"?>
<!-- Generator: Adobe Illustrator 16.0.0, SVG Export Plug-In . SVG Version: 6.00 Build 0)  -->
<!DOCTYPE svg PUBLIC "-//W3C//DTD SVG 1.1//EN" "http://www.w3.org/Graphics/SVG/1.1/DTD/svg11.dtd">
<svg version="1.1" id="Layer_1" xmlns="http://www.w3.org/2000/svg" xmlns:xlink="http://www.w3.org/1999/xlink" x="0px" y="0px"
	 width="200px" height="153.987px" viewBox="0 0 200 153.987" enable-background="new 0 0 200 153.987" xml:space="preserve">
<g>
	<path d="M23.741,69.557c1.104,0,2-0.897,2-2.004V39.397h4.02c1.104,0,2-0.897,2-2.004c0-1.105-0.896-2.003-2-2.003h-6.02
		c-1.104,0-2,0.897-2,2.003v30.16C21.741,68.661,22.637,69.557,23.741,69.557z"/>
	<path d="M177.324,96.5c-1.104,0-2,0.898-2,2.004v28.156h-4.021c-1.104,0-2,0.897-2,2.004c0,1.105,0.896,2.004,2,2.004h6.021
		c1.104,0,2-0.898,2-2.004v-30.16C179.324,97.397,178.429,96.5,177.324,96.5z"/>
	<path d="M179.324,37.393c0-1.105-0.896-2.003-2-2.003h-7.086c-1.104,0-2,0.897-2,2.003c0,1.106,0.896,2.004,2,2.004h5.086v8.05
		c0,1.106,0.896,2.003,2,2.003c1.104,0,2-0.896,2-2.003V37.393z"/>
	<path d="M15.714,130.645c1.104,0,2-0.897,2-2.004v-97.28c0-1.112,0.903-2.018,2.014-2.018h10.034c1.104,0,2-0.897,2-2.003
		s-0.896-2.004-2-2.004H19.728c-3.315,0-6.014,2.703-6.014,6.024v97.28C13.714,129.748,14.609,130.645,15.714,130.645z"/>
	<path d="M179.324,53.479c0-1.106-0.896-2.004-2-2.004c-1.104,0-2,0.897-2,2.004v1.518c0,1.105,0.896,2.004,2,2.004
		c1.104,0,2-0.898,2-2.004V53.479z"/>
	<path d="M25.741,126.637v-8.049c0-1.105-0.896-2.004-2-2.004s-2,0.898-2,2.004v10.053c0,1.106,0.896,2.004,2,2.004h7.086
		c1.104,0,2-0.897,2-2.004c0-1.105-0.896-2.004-2-2.004H25.741z"/>
	<path d="M21.741,112.556c0,1.105,0.896,2.003,2,2.003s2-0.897,2-2.003v-1.518c0-1.106-0.896-2.004-2-2.004s-2,0.897-2,2.004
		V112.556z"/>
	<path d="M111.162,142.33H88.836c-1.104,0-2,0.897-2,2.003c0,1.106,0.896,2.004,2,2.004h22.326c1.104,0,2-0.897,2-2.004
		C113.162,143.227,112.268,142.33,111.162,142.33z"/>
	<path d="M37.801,88.55c1.104,0,2-0.897,2-2.004v-56.97h42.875c1.104,0,2-0.898,2-2.004c0-1.106-0.896-2.004-2-2.004H39.801V21.84
		c0-6.949,5.625-12.603,12.541-12.603h73.603c1.104,0,2-0.897,2-2.003c0-1.106-0.896-2.004-2-2.004H52.341
		c-9.121,0-16.541,7.45-16.541,16.609v64.706C35.801,87.653,36.696,88.55,37.801,88.55z"/>
	<path d="M162.223,25.869c-1.104,0-2,0.897-2,2.003v1.519c0,1.105,0.896,2.003,2,2.003c1.104,0,2-0.897,2-2.003v-1.519
		C164.223,26.764,163.327,25.869,162.223,25.869z"/>
	<path d="M37.801,96.099c1.104,0,2-0.897,2-2.004v-1.518c0-1.105-0.896-2.004-2-2.004s-2,0.898-2,2.004v1.518
		C35.801,95.203,36.696,96.099,37.801,96.099z"/>
	<path d="M46.516,98.124c-1.104,0-2,0.897-2,2.004c0,1.105,0.896,2.004,2,2.004c16.213,0,29.403-13.254,29.403-29.543v-0.146
		c0-1.105-0.896-2.003-2-2.003s-2,0.897-2,2.003v0.146C71.917,86.668,60.522,98.124,46.516,98.124z"/>
	<path d="M48.931,15.292c1.155,0,2.092,0.938,2.092,2.096c0,1.157-0.937,2.096-2.092,2.096s-2.092-0.938-2.092-2.096
		C46.839,16.229,47.775,15.292,48.931,15.292z"/>
	<path d="M56.124,15.292c1.156,0,2.092,0.938,2.092,2.096c0,1.157-0.937,2.096-2.092,2.096c-1.155,0-2.092-0.938-2.092-2.096
		C54.032,16.229,54.968,15.292,56.124,15.292z"/>
	<path d="M63.318,15.249c1.155,0,2.092,0.939,2.092,2.096c0,1.158-0.937,2.096-2.092,2.096c-1.156,0-2.092-0.938-2.092-2.096
		C61.226,16.188,62.162,15.249,63.318,15.249z"/>
	<path d="M197.999,134.68h-10.647V31.361c0-3.321-2.697-6.024-6.014-6.024h-11.1c-1.104,0-2,0.898-2,2.004s0.896,2.003,2,2.003h11.1
		c1.11,0,2.014,0.905,2.014,2.018v103.318H15.714H2c-1.104,0-2,0.897-2,2.004v5.639c0,6.433,5.222,11.665,11.642,11.665h176.716
		c6.419,0,11.642-5.232,11.642-11.665v-5.639C199.999,135.577,199.104,134.68,197.999,134.68z M195.999,142.322
		c0,4.222-3.428,7.657-7.642,7.657H11.642c-4.213,0-7.642-3.434-7.642-7.657v-3.635h11.714h169.638h10.647V142.322z"/>
	<path d="M52.341,116.737h95.342c0.322,0,0.637-0.03,0.954-0.049c0.021,0.001,0.039,0.009,0.059,0.009
		c0.068,0,0.135-0.017,0.202-0.023c8.553-0.629,15.325-7.801,15.325-16.547V35.422c0-1.107-0.896-2.004-2.001-2.004
		c-1.104,0-2,0.896-2,2.004v44.242l-1.06-0.854c-0.975-0.786-1.669-1.846-2.006-3.068l-9.961-36.122
		c-0.583-2.116-1.74-4.015-3.344-5.49l-4.951-4.556h15.295c1.104,0,2-0.897,2-2.004c0-1.105-0.896-2.003-2-2.003h-19.651
		l-3.162-2.909l16.421-13.416c6.858,0.068,12.419,5.689,12.419,12.596c0,1.105,0.896,2.004,2,2.004c1.104,0,2.001-0.898,2.001-2.004
		c0-8.159-5.894-14.947-13.628-16.335c0.235-1.287-0.043-2.663-0.913-3.759c-0.776-0.976-1.885-1.586-3.117-1.718
		c-1.228-0.132-2.435,0.229-3.392,1.013L124.481,16.31l-1.782-1.639c-2.562-2.359-6.252-2.967-9.399-1.554l-19.579,8.795
		c-2.146,0.964-3.745,2.925-4.279,5.245l-3.545,15.389c-0.237,1.028-0.018,2.107,0.601,2.96c0.288,0.397,0.654,0.719,1.064,0.966
		l-6.789,5.546c-2.131,1.74-3.991,3.787-5.528,6.084l-2.988,4.466c-0.492,0.734-0.444,1.705,0.117,2.389
		c0.389,0.473,0.96,0.73,1.544,0.73c0.26,0,0.523-0.052,0.774-0.156l5.026-2.115c2.431-1.022,4.702-2.391,6.748-4.062l10.043-8.204
		l2.839,10.612c0.485,1.815,1.112,3.607,1.862,5.324l2.194,5.022c0.294,0.674,0.932,1.131,1.662,1.193l0.242,0.021
		c0.226,0.021,0.45,0.029,0.674,0.029c0.619,0,1.229-0.073,1.82-0.214c-0.568,4.536,0.071,9.205,1.912,13.415l1.576,3.608
		c1.544,3.535,4.345,6.256,7.886,7.66l7.462,2.961c0.979,0.389,1.9,0.914,2.74,1.56l13.484,10.386H52.341
		c-6.915,0-12.541-5.653-12.541-12.602c0-1.105-0.896-2.004-2-2.004s-2,0.898-2,2.004C35.801,109.286,43.221,116.737,52.341,116.737
		z M145.704,4.145c0.159-0.131,0.324-0.142,0.437-0.132c0.114,0.013,0.278,0.062,0.412,0.229c0.224,0.281,0.181,0.707-0.095,0.931
		l-31.525,25.755c-0.347-0.275-0.72-0.52-1.109-0.739L145.704,4.145z M93.339,28.06c0.255-1.106,1.009-2.036,2.018-2.489
		l19.579-8.797c1.688-0.757,3.673-0.425,5.059,0.85l1.355,1.246l-12.614,10.305c-0.784,0.102-1.558,0.318-2.3,0.652
		c-2.119,0.952-3.642,2.71-4.384,4.764l-8.849,7.229c-0.945,0.772-2.104,1.185-3.306,1.186L93.339,28.06z M83.938,56.249
		c-1.398,1.143-2.917,2.117-4.532,2.91c1.136-1.494,2.441-2.847,3.894-4.033l18.6-15.195c0.098,0.329,0.21,0.657,0.351,0.979
		l0.123,0.28l-5.946,4.859c-0.012,0.009-0.023,0.019-0.035,0.027L83.938,56.249z M104.875,65.48
		c-0.67-1.533-1.229-3.132-1.664-4.753l-3.304-12.353L104.038,45l3.925,8.979c1.807,4.137,2.204,8.82,1.119,13.19l-0.219,0.883
		c-0.621,0.675-1.43,1.122-2.316,1.252L104.875,65.48z M128.114,97.058l-7.462-2.962c-2.553-1.012-4.575-2.98-5.694-5.542
		l-1.577-3.609c-1.888-4.319-2.303-9.214-1.17-13.778l0.405-1.629c0-0.002,0-0.002,0-0.003l0.348-1.399
		c1.298-5.224,0.822-10.822-1.337-15.764l-5.711-13.069c-0.41-0.941-0.46-1.942-0.237-2.866c0.016-0.051,0.027-0.101,0.04-0.151
		c0.335-1.207,1.15-2.261,2.354-2.802c1.022-0.459,2.164-0.488,3.218-0.083c1.093,0.422,1.956,1.258,2.436,2.353l6.6,15.104
		c1.341,3.068,3.196,5.837,5.513,8.229l5.095,5.257c0.77,0.794,2.036,0.812,2.828,0.042c0.792-0.77,0.812-2.039,0.042-2.833
		l-5.095-5.257c-1.982-2.047-3.57-4.418-4.719-7.047l-6.6-15.104c-0.006-0.013-0.014-0.025-0.02-0.038l10.881-8.89l12.896,11.863
		c1.051,0.967,1.81,2.214,2.193,3.606l9.961,36.122c0.562,2.036,1.723,3.81,3.355,5.124l3.564,2.871v15.322
		c0,6.403-4.78,11.695-10.942,12.487l-17.461-13.449C130.685,98.292,129.438,97.584,128.114,97.058z"/>
</g>
</svg>
