<?xml version="1.0" encoding="utf-8"?>
<!-- Generator: Adobe Illustrator 16.0.0, SVG Export Plug-In . SVG Version: 6.00 Build 0)  -->
<!DOCTYPE svg PUBLIC "-//W3C//DTD SVG 1.1//EN" "http://www.w3.org/Graphics/SVG/1.1/DTD/svg11.dtd">
<svg version="1.1" id="Layer_1" xmlns="http://www.w3.org/2000/svg" xmlns:xlink="http://www.w3.org/1999/xlink" x="0px" y="0px"
	 width="286.007px" height="286.01px" viewBox="0 0 286.007 286.01" enable-background="new 0 0 286.007 286.01"
	 xml:space="preserve">
<g>
	<path d="M274.53,97.508c0.439-0.348,0.665-0.891,0.606-1.449c-0.06-0.553-0.397-1.037-0.898-1.284l-50.293-24.679
		c-0.509-0.248-1.101-0.221-1.578,0.079c-0.477,0.296-0.766,0.815-0.766,1.38v64.498c0,0.623,0.358,1.191,0.919,1.463
		c0.224,0.107,0.467,0.16,0.708,0.16c0.361,0,0.717-0.119,1.01-0.352L274.53,97.508z M224.852,74.159l45.643,22.398l-45.643,36.134
		V74.159z"/>
	<path d="M148.496,63.498c0.271,0.561,0.839,0.916,1.463,0.916h64.506c0.004,0,0.007,0,0.011,0c0.898,0,1.626-0.728,1.626-1.623
		c0-0.327-0.094-0.634-0.261-0.888l-24.6-50.125c-0.244-0.502-0.731-0.84-1.285-0.898c-0.561-0.056-1.097,0.171-1.445,0.606
		l-39.827,50.295C148.301,62.272,148.225,62.938,148.496,63.498z M189.458,15.522l22.398,45.643h-58.54L189.458,15.522z"/>
	<path d="M67.892,216.496c0,0.897,0.725,1.626,1.623,1.626h65.367c0.003,0,0.007,0,0.01,0c0.898,0,1.627-0.729,1.627-1.626
		c0-0.51-0.237-0.965-0.606-1.265l-65.251-65.247c-0.464-0.464-1.163-0.603-1.77-0.353c-0.609,0.251-1.003,0.843-1.003,1.501v65.363
		H67.892z M71.142,155.055l59.818,59.821H71.142V155.055z"/>
	<path d="M63.493,148.507c-0.561-0.271-1.229-0.198-1.717,0.188L11.48,188.515c-0.436,0.349-0.666,0.892-0.606,1.445
		c0.059,0.554,0.4,1.041,0.898,1.285l50.296,24.679c0.227,0.112,0.471,0.168,0.714,0.168c0.3,0,0.596-0.08,0.86-0.244
		c0.474-0.296,0.767-0.818,0.767-1.379V149.97C64.412,149.343,64.054,148.775,63.493,148.507z M61.163,211.856L15.52,189.458
		l45.644-36.134V211.856z"/>
	<path d="M70.173,63.651c0.297,0.478,0.815,0.767,1.38,0.767h64.499c0.003,0,0.007,0,0.014,0c0.896,0,1.623-0.729,1.623-1.623
		c0-0.446-0.181-0.854-0.47-1.146L97.511,11.489c-0.349-0.435-0.896-0.662-1.449-0.606c-0.554,0.06-1.042,0.4-1.285,0.899
		l-24.68,50.295C69.842,62.579,69.874,63.174,70.173,63.651z M96.553,15.522l36.135,45.643H74.154L96.553,15.522z"/>
	<path d="M64.412,71.555c0-0.562-0.289-1.084-0.766-1.38c-0.478-0.296-1.073-0.327-1.574-0.079L11.775,94.774
		c-0.501,0.247-0.839,0.731-0.898,1.284c-0.059,0.555,0.171,1.102,0.606,1.449l50.296,39.823c0.293,0.229,0.651,0.352,1.01,0.352
		c0.24,0,0.484-0.052,0.707-0.16c0.562-0.271,0.92-0.84,0.92-1.463V71.555H64.412z M61.163,132.698L15.52,96.561l45.644-22.398
		V132.698z"/>
	<path d="M143.007,216.729c0.432,0,0.847-0.17,1.149-0.477l72.096-72.095c0.637-0.638,0.637-1.665,0-2.299l-72.096-72.095
		c-0.609-0.609-1.689-0.609-2.299,0L69.77,141.858c-0.635,0.634-0.635,1.661,0,2.299l72.088,72.095
		C142.164,216.559,142.575,216.729,143.007,216.729z M143.007,73.212l69.801,69.8l-69.801,69.796l-69.793-69.8L143.007,73.212z"/>
	<path d="M279.623,100.733c-0.157-0.512-0.558-0.913-1.073-1.073c-0.509-0.156-1.069-0.056-1.487,0.279l-52.793,41.793
		c-0.004,0.004-0.007,0.011-0.014,0.014c-0.077,0.067-0.15,0.137-0.22,0.217c-0.011,0.011-0.021,0.021-0.031,0.031l-0.004,0.004
		c-0.073,0.09-0.132,0.191-0.185,0.292c-0.01,0.021-0.018,0.049-0.027,0.069c-0.035,0.084-0.07,0.168-0.088,0.255
		c-0.007,0.035-0.014,0.073-0.018,0.108c-0.017,0.076-0.027,0.153-0.027,0.233c-0.003,0.017-0.007,0.034-0.007,0.052
		c0,0.024,0.007,0.049,0.007,0.073c0.007,0.073,0.014,0.146,0.027,0.22c0.008,0.041,0.015,0.08,0.028,0.125
		c0.018,0.073,0.046,0.143,0.073,0.213c0.014,0.034,0.028,0.072,0.045,0.104c0.039,0.074,0.084,0.146,0.137,0.217
		c0.017,0.024,0.031,0.049,0.052,0.073c0.073,0.087,0.153,0.174,0.247,0.247l52.793,41.805c0.29,0.227,0.648,0.348,1.004,0.348
		c0.24,0,0.487-0.056,0.71-0.164c0.126-0.062,0.237-0.142,0.345-0.229c0.031-0.024,0.06-0.056,0.084-0.08
		c0.073-0.073,0.136-0.149,0.195-0.229c0.021-0.035,0.045-0.066,0.066-0.098c0.069-0.115,0.129-0.237,0.167-0.365
		c2.612-8.415,4.444-17.14,5.45-25.934c0.613-5.378,0.927-10.87,0.927-16.317C286.01,128.613,283.861,114.39,279.623,100.733z
		 M281.855,158.956c-0.896,7.812-2.459,15.571-4.65,23.091l-49.311-39.035l49.308-39.036c3.688,12.646,5.559,25.766,5.559,39.036
		C282.761,148.333,282.454,153.7,281.855,158.956z"/>
	<path d="M68.895,136.387c0.202,0.084,0.411,0.125,0.62,0.125c0.422,0,0.84-0.163,1.149-0.477l65.367-65.365
		c0.463-0.464,0.602-1.164,0.352-1.77c-0.251-0.606-0.843-1.004-1.501-1.004H69.519c-0.898,0-1.623,0.725-1.623,1.623v65.366
		C67.892,135.544,68.289,136.137,68.895,136.387z M71.142,71.143h59.818l-59.818,59.818V71.143z"/>
	<path d="M151.129,218.122h65.366c0.899,0,1.627-0.729,1.627-1.626v-65.367c0-0.654-0.394-1.246-1.003-1.5s-1.307-0.111-1.77,0.352
		l-65.37,65.369c-0.463,0.463-0.603,1.164-0.352,1.77C149.882,217.729,150.475,218.122,151.129,218.122z M214.873,155.055v59.821
		h-59.822L214.873,155.055z"/>
	<path d="M218.122,69.52c0-0.898-0.728-1.623-1.627-1.623h-65.366c-0.654,0-1.247,0.395-1.501,1.004s-0.111,1.306,0.352,1.77
		l65.37,65.365c0.311,0.311,0.725,0.477,1.149,0.477c0.209,0,0.418-0.041,0.62-0.125c0.609-0.25,1.003-0.843,1.003-1.501V69.52z
		 M214.873,130.965l-59.822-59.818h59.822V130.965z"/>
	<path d="M62.354,143.008c0-0.498-0.227-0.965-0.617-1.275L8.944,99.939c-0.422-0.335-0.979-0.436-1.491-0.279
		c-0.512,0.157-0.912,0.562-1.072,1.073C2.149,114.4,0,128.623,0,143.008c0,9.939,1.031,19.869,3.065,29.514
		c0.561,2.654,1.184,5.248,1.853,7.718c0.449,1.671,0.944,3.375,1.463,5.054c0.16,0.508,0.561,0.912,1.072,1.072
		c0.157,0.049,0.317,0.073,0.481,0.073c0.362,0,0.717-0.121,1.01-0.352l52.793-41.805C62.124,143.977,62.354,143.506,62.354,143.008
		z M8.802,182.054c-0.258-0.888-0.509-1.779-0.745-2.661c-0.651-2.41-1.262-4.949-1.812-7.543
		c-1.985-9.422-2.992-19.125-2.992-28.842c0-13.263,1.867-26.379,5.549-39.035l49.307,39.035L8.802,182.054z"/>
	<path d="M144.278,224.279c-0.004-0.004-0.007-0.01-0.014-0.014c-0.063-0.076-0.136-0.149-0.213-0.216
		c-0.014-0.011-0.024-0.024-0.034-0.034c0,0,0-0.004-0.004-0.004c-0.091-0.074-0.188-0.133-0.289-0.186
		c-0.024-0.01-0.056-0.017-0.08-0.031c-0.077-0.034-0.157-0.065-0.24-0.083c-0.039-0.011-0.081-0.014-0.123-0.021
		c-0.072-0.015-0.146-0.024-0.219-0.024c-0.021,0-0.038-0.007-0.059-0.007c-0.028,0-0.056,0.007-0.08,0.01
		c-0.07,0.004-0.137,0.011-0.206,0.021c-0.045,0.01-0.091,0.018-0.14,0.031c-0.065,0.018-0.132,0.045-0.198,0.072
		c-0.038,0.015-0.08,0.031-0.118,0.049c-0.073,0.039-0.14,0.08-0.202,0.13c-0.027,0.021-0.06,0.038-0.083,0.059
		c-0.091,0.073-0.175,0.153-0.248,0.247l-41.801,52.786c-0.095,0.118-0.171,0.251-0.227,0.387c-0.011,0.027-0.011,0.056-0.021,0.076
		c-0.041,0.115-0.072,0.229-0.087,0.355c-0.003,0.032,0,0.06,0,0.087c-0.007,0.119-0.007,0.236,0.011,0.355
		c0.004,0.035,0.018,0.066,0.027,0.098c0.021,0.094,0.039,0.191,0.077,0.282c0.007,0.021,0.021,0.034,0.028,0.052
		c0.003,0.008,0.003,0.014,0.007,0.021c0.042,0.083,0.094,0.163,0.146,0.236c0.039,0.057,0.08,0.102,0.126,0.15
		c0.056,0.062,0.114,0.121,0.181,0.174c0.046,0.035,0.091,0.066,0.14,0.094c0.066,0.042,0.132,0.076,0.202,0.108
		c0.049,0.021,0.094,0.045,0.146,0.062c0.023,0.007,0.045,0.021,0.069,0.027c8.414,2.608,17.14,4.444,25.937,5.451
		c5.378,0.612,10.87,0.927,16.317,0.927c9.94,0,19.87-1.031,29.514-3.065c2.661-0.563,5.256-1.188,7.712-1.85
		c1.623-0.436,3.273-0.915,5.05-1.463c0.512-0.159,0.912-0.561,1.072-1.072c0.16-0.513,0.056-1.073-0.278-1.491L144.278,224.279z
		 M179.386,277.961c-2.396,0.647-4.936,1.254-7.537,1.808c-9.418,1.988-19.121,2.995-28.838,2.995
		c-5.325,0-10.692-0.307-15.948-0.906c-7.812-0.895-15.568-2.455-23.092-4.649l39.036-49.303l39.036,49.307
		C181.138,277.477,180.26,277.724,179.386,277.961z"/>
	<path d="M65.092,221.664c-0.157-0.324-0.418-0.581-0.742-0.742l-51.17-25.111c-0.606-0.299-1.338-0.188-1.829,0.275
		c-0.494,0.464-0.647,1.185-0.386,1.812c14.433,34.602,42.553,62.722,77.155,77.155c0.202,0.08,0.415,0.121,0.627,0.121
		c0.004,0,0.007,0,0.015,0c0.895,0,1.623-0.728,1.623-1.623c0-0.326-0.098-0.633-0.266-0.888L65.092,221.664z M15.722,200.676
		l46.698,22.918l22.918,46.693C54.709,256.343,29.675,231.305,15.722,200.676z"/>
	<path d="M272.834,195.811l-51.17,25.111c-0.324,0.161-0.585,0.418-0.742,0.742l-25.111,51.17c-0.299,0.609-0.191,1.337,0.275,1.828
		c0.313,0.334,0.742,0.509,1.185,0.509c0.209,0,0.421-0.042,0.626-0.122c34.603-14.436,62.724-42.557,77.153-77.155
		c0.261-0.627,0.107-1.348-0.384-1.811C274.176,195.619,273.44,195.512,272.834,195.811z M200.677,270.291l22.917-46.693
		l46.695-22.918C256.34,231.305,231.305,256.343,200.677,270.291z"/>
	<path d="M141.732,61.739c0.003,0.007,0.01,0.011,0.014,0.015c0.062,0.072,0.133,0.143,0.209,0.209
		c0.014,0.01,0.024,0.027,0.042,0.038l0,0c0.087,0.069,0.181,0.125,0.278,0.174c0.024,0.015,0.053,0.024,0.077,0.035
		c0.076,0.034,0.156,0.062,0.236,0.083c0.028,0.008,0.06,0.014,0.087,0.021c0.108,0.021,0.22,0.038,0.328,0.038l0,0l0,0
		c0.01,0,0.021-0.004,0.031-0.004c0.111-0.003,0.219-0.014,0.33-0.038c0.046-0.01,0.084-0.031,0.126-0.045
		c0.073-0.021,0.146-0.042,0.22-0.076c0.045-0.021,0.083-0.053,0.129-0.08c0.062-0.036,0.125-0.07,0.181-0.112
		c0.094-0.076,0.185-0.163,0.261-0.265l41.795-52.785c0.362-0.457,0.436-1.073,0.22-1.609c-0.015-0.035-0.018-0.073-0.035-0.107
		c0,0-0.004,0-0.004-0.004c-0.062-0.125-0.14-0.234-0.227-0.338c-0.027-0.031-0.056-0.06-0.083-0.087
		c-0.069-0.073-0.146-0.137-0.227-0.192c-0.035-0.021-0.066-0.045-0.098-0.066c-0.115-0.069-0.237-0.128-0.365-0.162
		c-8.415-2.613-17.14-4.448-25.927-5.455C153.957,0.312,148.468,0,143.014,0c-14.392,0-28.615,2.148-42.282,6.384
		c-0.512,0.156-0.912,0.56-1.072,1.072s-0.056,1.069,0.278,1.491L141.732,61.739z M143.007,3.256c5.332,0,10.699,0.303,15.948,0.905
		c7.809,0.892,15.562,2.456,23.084,4.649l-39.032,49.303L103.964,8.811C116.617,5.123,129.74,3.256,143.007,3.256z"/>
	<path d="M221.602,149.97v64.499c0,0.557,0.289,1.083,0.766,1.379c0.266,0.164,0.562,0.244,0.861,0.244
		c0.243,0,0.49-0.056,0.717-0.168l50.293-24.679c0.501-0.244,0.839-0.731,0.898-1.285c0.062-0.554-0.167-1.097-0.606-1.445
		l-50.292-39.819c-0.491-0.387-1.156-0.46-1.718-0.188C221.957,148.775,221.602,149.343,221.602,149.97z M224.852,153.327
		l45.643,36.135l-45.643,22.397V153.327z"/>
	<path d="M220.919,64.355c0.157,0.324,0.418,0.584,0.741,0.742l51.171,25.107c0.227,0.111,0.474,0.167,0.714,0.167
		c0.007,0,0.011,0,0.014,0c0.898,0,1.627-0.725,1.627-1.623c0-0.293-0.077-0.567-0.216-0.805
		c-14.461-34.525-42.547-62.569-77.083-76.974c-0.623-0.262-1.345-0.108-1.808,0.386c-0.467,0.495-0.575,1.224-0.275,1.829
		L220.919,64.355z M270.289,85.34l-46.695-22.918l-22.917-46.697C231.298,29.673,256.329,54.711,270.289,85.34z"/>
	<path d="M215.841,222.367c-0.296-0.477-0.815-0.766-1.379-0.766h-64.507c-0.623,0-1.191,0.358-1.463,0.92
		c-0.271,0.561-0.198,1.229,0.188,1.717l39.826,50.291c0.311,0.391,0.78,0.617,1.271,0.617c0.06,0,0.114,0,0.174-0.007
		c0.554-0.062,1.042-0.4,1.285-0.902l24.68-50.292C216.168,223.44,216.137,222.845,215.841,222.367z M189.458,270.496
		l-36.142-45.642h58.54L189.458,270.496z"/>
	<path d="M137.511,222.521c-0.271-0.562-0.839-0.92-1.463-0.92H71.549c-0.561,0-1.083,0.289-1.379,0.766
		c-0.296,0.478-0.328,1.073-0.08,1.578l24.68,50.292c0.244,0.502,0.731,0.84,1.285,0.902c0.059,0.007,0.115,0.007,0.174,0.007
		c0.494,0,0.961-0.223,1.274-0.617l39.816-50.291C137.706,223.746,137.782,223.082,137.511,222.521z M96.553,270.496l-22.398-45.642
		h58.533L96.553,270.496z"/>
	<path d="M12.466,90.372c0.243,0,0.487-0.056,0.714-0.167l51.17-25.107c0.324-0.158,0.582-0.422,0.742-0.742l25.111-51.17
		c0.3-0.605,0.188-1.338-0.275-1.829c-0.463-0.494-1.184-0.644-1.811-0.383c-34.6,14.437-62.72,42.561-77.156,77.155
		c-0.262,0.623-0.108,1.344,0.387,1.811C11.657,90.222,12.058,90.372,12.466,90.372z M85.338,15.728L62.42,62.426L15.722,85.343
		C29.678,54.718,54.713,29.684,85.338,15.728z"/>
</g>
</svg>
