<?xml version="1.0" encoding="utf-8"?>
<!-- Generator: Adobe Illustrator 16.0.0, SVG Export Plug-In . SVG Version: 6.00 Build 0)  -->
<!DOCTYPE svg PUBLIC "-//W3C//DTD SVG 1.1//EN" "http://www.w3.org/Graphics/SVG/1.1/DTD/svg11.dtd">
<svg version="1.1" id="Слой_7" xmlns="http://www.w3.org/2000/svg" xmlns:xlink="http://www.w3.org/1999/xlink" x="0px" y="0px"
	 width="94.007px" height="47.003px" viewBox="0 21.999 94.007 47.003" enable-background="new 0 21.999 94.007 47.003"
	 xml:space="preserve">
<rect y="21.999" width="47.003" height="47.003"/>
<rect x="47.003" y="21.999" fill="none" width="47.003" height="47.003"/>
<g>
	<path fill="#FFFFFF" d="M6.672,36.118c-0.794-0.667-1.192-1.609-1.192-2.821s0.391-2.148,1.165-2.801
		c0.781-0.653,1.697-0.963,2.754-0.936c0.997,0.034,1.865,0.37,2.612,1.03c0.748,0.653,1.118,1.555,1.118,2.707
		c0,1.185-0.364,2.101-1.098,2.754c-0.734,0.653-1.596,0.997-2.592,1.023C8.396,37.107,7.467,36.784,6.672,36.118z M12.577,40.063
		v22.219H6.046V40.063H12.577z"/>
	<path fill="#FFFFFF" d="M34.561,59.104v-0.605c-0.619,1.367-1.535,2.424-2.733,3.172c-1.199,0.747-2.545,1.137-4.04,1.164
		c-3.266,0.061-5.817-1.051-7.655-3.34c-1.838-2.289-2.754-5.109-2.754-8.47c0-2.175,0.458-4.154,1.38-5.925
		c0.916-1.771,2.134-3.125,3.643-4.06c1.508-0.936,3.211-1.495,5.11-1.684s3.824,0.236,5.791,1.259V28.159h6.538v26.649
		c0,0.128,0,0.384,0,0.768c0,0.391,0,0.619,0,0.7s0.014,0.256,0.047,0.538c0.034,0.283,0.067,0.451,0.114,0.512
		c0.047,0.061,0.121,0.169,0.236,0.33c0.107,0.155,0.235,0.25,0.377,0.283c0.141,0.033,0.33,0.067,0.559,0.114
		c0.236,0.048,0.492,0.054,0.768,0.021l0.047,4.248c-1.151,0.216-2.262,0.344-3.34,0.371c-1.07,0.033-2.013-0.256-2.821-0.862
		C35.012,61.225,34.594,60.316,34.561,59.104z M33.49,51.913v-5.79c-2.336-1.401-4.518-1.623-6.558-0.673
		c-2.04,0.949-3.057,2.808-3.057,5.575c0,1.744,0.411,3.185,1.239,4.315c0.821,1.139,2.061,1.704,3.71,1.704
		c1.367,0,2.491-0.499,3.36-1.495C33.053,54.56,33.49,53.348,33.49,51.913z"/>
</g>
<g>
	<path fill="#FF283C" d="M53.299,61.138V28.092h6.49v12.416c1.744-0.713,3.488-1.07,5.225-1.07c3.145-0.034,5.724,1.05,7.75,3.245
		c2.02,2.195,3.037,5.05,3.037,8.564c0,2.115-0.35,3.953-1.051,5.508c-0.7,1.556-1.663,2.768-2.895,3.643
		c-1.232,0.869-2.593,1.509-4.088,1.912c-1.494,0.404-3.145,0.606-4.948,0.606C59.648,62.875,56.471,62.282,53.299,61.138z
		 M59.648,45.874v11.205c1.555,0.403,2.861,0.592,3.918,0.559c3.798-0.061,5.696-2.195,5.696-6.396c0-1.959-0.505-3.521-1.515-4.693
		c-1.01-1.165-2.296-1.784-3.852-1.845C62.523,44.642,61.109,45.032,59.648,45.874z"/>
	<path fill="#FF283C" d="M81.281,36.003c-0.795-0.667-1.191-1.609-1.191-2.821c0-1.212,0.391-2.148,1.164-2.801
		c0.781-0.653,1.697-0.963,2.754-0.936c0.997,0.033,1.865,0.37,2.613,1.03c0.747,0.653,1.117,1.556,1.117,2.707
		c0,1.185-0.363,2.101-1.098,2.753c-0.734,0.653-1.596,0.997-2.592,1.023C82.998,36.986,82.076,36.669,81.281,36.003z
		 M87.186,39.942v22.219h-6.537V39.942H87.186z"/>
</g>
</svg>
