<?xml version="1.0" encoding="utf-8"?>
<!-- Generator: Adobe Illustrator 21.1.0, SVG Export Plug-In . SVG Version: 6.00 Build 0)  -->
<svg version="1.1" id="Слой_7" xmlns="http://www.w3.org/2000/svg" xmlns:xlink="http://www.w3.org/1999/xlink" x="0px" y="0px"
	 viewBox="0 0 1396.1 698.1" style="enable-background:new 0 0 1396.1 698.1;" xml:space="preserve">
<style type="text/css">
	.st0{fill:#FFFFFF;}
	.st1{fill:#181818;}
	.st2{fill:#FF283C;}
</style>
<rect class="st0" width="698.1" height="698.1"/>
<rect x="698.1" class="st1" width="698.1" height="698.1"/>
<g>
	<path class="st1" d="M99.1,209.7c-11.8-9.9-17.7-23.9-17.7-41.9s5.8-31.9,17.3-41.6c11.6-9.7,25.2-14.3,40.9-13.9
		c14.8,0.5,27.7,5.5,38.8,15.3c11.1,9.7,16.6,23.1,16.6,40.2c0,17.6-5.4,31.2-16.3,40.9c-10.9,9.7-23.7,14.8-38.5,15.2
		C124.7,224.4,110.9,219.6,99.1,209.7z M186.8,268.3v330H89.8v-330H186.8z"/>
	<path class="st1" d="M513.3,551.1v-9c-9.2,20.3-22.8,36-40.6,47.1s-37.8,16.9-60,17.3c-48.5,0.9-86.4-15.6-113.7-49.6
		c-27.3-34-40.9-75.9-40.9-125.8c0-32.3,6.8-61.7,20.5-88c13.6-26.3,31.7-46.4,54.1-60.3c22.4-13.9,47.7-22.2,75.9-25
		c28.2-2.8,56.8,3.5,86,18.7V91.5h97.1v395.8c0,1.9,0,5.7,0,11.4c0,5.8,0,9.2,0,10.4c0,1.2,0.2,3.8,0.7,8c0.5,4.2,1,6.7,1.7,7.6
		c0.7,0.9,1.8,2.5,3.5,4.9c1.6,2.3,3.5,3.7,5.6,4.2c2.1,0.5,4.9,1,8.3,1.7c3.5,0.7,7.3,0.8,11.4,0.3l0.7,63.1
		c-17.1,3.2-33.6,5.1-49.6,5.5c-15.9,0.5-29.9-3.8-41.9-12.8C520,582.6,513.8,569.1,513.3,551.1z M497.4,444.3v-86
		c-34.7-20.8-67.1-24.1-97.4-10c-30.3,14.1-45.4,41.7-45.4,82.8c0,25.9,6.1,47.3,18.4,64.1c12.2,16.9,30.6,25.3,55.1,25.3
		c20.3,0,37-7.4,49.9-22.2C490.9,483.6,497.4,465.6,497.4,444.3z"/>
</g>
<g>
	<path class="st2" d="M791.6,581.3V90.5h96.4v184.4c25.9-10.6,51.8-15.9,77.6-15.9c46.7-0.5,85,15.6,115.1,48.2
		c30,32.6,45.1,75,45.1,127.2c0,31.4-5.2,58.7-15.6,81.8c-10.4,23.1-24.7,41.1-43,54.1c-18.3,12.9-38.5,22.4-60.7,28.4
		c-22.2,6-46.7,9-73.5,9C885.9,607.1,838.7,598.3,791.6,581.3z M885.9,354.6v166.4c23.1,6,42.5,8.8,58.2,8.3
		c56.4-0.9,84.6-32.6,84.6-95c0-29.1-7.5-52.3-22.5-69.7c-15-17.3-34.1-26.5-57.2-27.4C928.6,336.3,907.6,342.1,885.9,354.6z"/>
	<path class="st2" d="M1207.2,208c-11.8-9.9-17.7-23.9-17.7-41.9s5.8-31.9,17.3-41.6c11.6-9.7,25.2-14.3,40.9-13.9
		c14.8,0.5,27.7,5.5,38.8,15.3c11.1,9.7,16.6,23.1,16.6,40.2c0,17.6-5.4,31.2-16.3,40.9c-10.9,9.7-23.7,14.8-38.5,15.2
		C1232.7,222.6,1219,217.9,1207.2,208z M1294.9,266.5v330h-97.1v-330H1294.9z"/>
</g>
</svg>
