<svg xmlns="http://www.w3.org/2000/svg" viewBox="0 0 241.5 48.5"><path d="M0 8.5h9.9c10.3 0 14.9 5.3 14.9 14.9C24.8 33.1 20 39 9.6 39H0V8.5zm6.8 24.6h2.9c5.3 0 8.2-3.2 8.2-9.3 0-6.3-2.9-9-8.5-9H6.8v18.3zM32.1 0C34.3 0 36 1.7 36 3.8s-1.7 3.9-3.9 3.9-3.9-1.8-3.9-3.9S29.9 0 32.1 0zm-3.3 15.8h6.6V39h-6.6V15.8zM62 15v19.9c0 9.4-4.1 13.6-13 13.6-4.4 0-8-1.3-8-1.3l-.6-6.9s4 2.6 8.1 2.6c5.8 0 6.9-2.4 7-6.2-1.4 1.2-3.9 2-5.6 2-6 0-10.6-3.7-10.6-11.6 0-7.4 4.4-12.5 11.5-12.5 2.7 0 4.9.7 6.1 1.4l3.7-1H62zm-6.6 6.3c-1.3-.7-2.8-1.1-4.4-1.1-2.8 0-5.4 1.9-5.4 6.7 0 4.6 2.2 6.3 5.3 6.3 1.5 0 3.1-.3 4.4-1.4V21.3zM70.6 0c2.2 0 3.9 1.7 3.9 3.8s-1.7 3.9-3.9 3.9-3.9-1.8-3.9-3.9S68.4 0 70.6 0zm-3.3 15.8h6.6V39h-6.6V15.8zM87 20.5v9.1c0 2.8 1 4.2 3 4.2 3.3 0 6.2-2.1 6.2-2.1l-.3 6.3c-2 .9-4.8 1.5-7.5 1.5-5.4 0-8.1-2.8-8.1-8.9V20.5h-3.9v-2.1c4.1-3 7.5-9.5 7.5-9.5h3v6.4h9.2v5.3l-9.1-.1zm26.7 18.8c-.3-1-.7-2.8-.7-3.5-1.3 1.7-4.2 3.7-7.1 3.7-5.3 0-7.8-2.9-7.8-7.5 0-5.2 4.1-8.2 11.1-8.2h3.3c-.2-2-1.2-3.7-4.4-3.7-2.7 0-5.3.6-7 2l-.5-6.5s3.4-1.1 8.5-1.1c7.8 0 9.8 3.5 9.8 11.2v5.5c0 4 1.2 7.1 1.2 7.1l-6.4 1zM112.3 29h-2.8c-3.6 0-5.5.8-5.5 2.9 0 1.5.8 2.3 2.5 2.3 2.5 0 4.8-1.7 5.8-3.4V29zm18.1 2.3c0 2.1 2.1 2.4 4.1 2.4l-.7 5.4c-1.2 0-2.5.1-4.1.1-3.7 0-5.7-2.1-5.7-7.2V6.3l6.5-.3v25.3zm7.1-10.1H153v6.3h-15.4v-6.3zM165 31.3c0 2.1 2.1 2.4 4.1 2.4l-.7 5.4c-1.2 0-2.5.1-4.1.1-3.7 0-5.7-2.1-5.7-7.2V6.3l6.5-.3v25.3zm21.3 8c-.3-1-.7-2.8-.7-3.5-1.3 1.7-4.2 3.7-7.1 3.7-5.3 0-7.8-2.9-7.8-7.5 0-5.2 4.1-8.2 11.1-8.2h3.3c-.2-2-1.2-3.7-4.4-3.7-2.7 0-5.3.6-7 2l-.5-6.5s3.4-1.1 8.5-1.1c7.8 0 9.8 3.5 9.8 11.2v5.5c0 4 1.2 7.1 1.2 7.1l-6.4 1zM185 29h-2.8c-3.6 0-5.5.8-5.5 2.9 0 1.5.8 2.3 2.5 2.3 2.5 0 4.8-1.7 5.8-3.4V29zm18.5-22.9v11.1c1.9-1.5 4.4-2.6 7.2-2.6 4.8 0 9.7 3 9.7 12.1 0 8.4-4.8 13-11.8 13-3.5 0-6-1.2-7.2-1.9l-3.1 1.2H197V6.3l6.5-.2zm0 17v9.5c1 .7 2.7 1.6 4.2 1.6 4.2 0 6-2.4 6-7.1 0-5-1.6-6.6-4.5-6.6-1.7 0-3.5.5-5.7 2.6zm36-1.1c-1.7-1.4-3.9-2.1-7.6-2.1-1.5 0-2.6.7-2.6 1.7 0 1.4.8 2 6.6 3.6 2.4.7 5.6 2.4 5.6 6.5 0 4.7-3.2 7.7-10.2 7.7-3.4 0-6.6-.6-8.4-1.3l.3-6.6s3.6 2.5 8 2.5c2.4 0 3.7-.6 3.7-2 0-1.7-3-2.1-6.1-3.1-4-1.4-5.9-3.3-5.9-7.1 0-4.3 3.4-7.2 10.1-7.2 3.6 0 7 1 7 1l-.5 6.4z" fill="#dc2c3d"/></svg>