<svg xmlns="http://www.w3.org/2000/svg" xmlns:xlink="http://www.w3.org/1999/xlink" width="28" height="24" viewBox="0 0 28 24"><defs><path id="a" d="M1364.58 7895.58l-1.76 1.98 6.18 6.1v5.34h-2.52v-4.35l-5.56-5.47-3.15 2.98v4.35h-2.53v-4.35l-3.03-3.1-5.55 5.46v4.35h-2.53v-5.34l6.19-6.09-2.02-1.86h-.5c-.76 0-1.27-.63-1.27-1.25v-3.6h-2.52v-2.49h2.52c0-.74.5-1.24 1.26-1.24s1.27.62 1.27 1.24h2.52v2.49h-2.52v2.48h14.77v-2.48h-2.53v-2.49h2.53c0-.74.63-1.24 1.26-1.24.76 0 1.26.62 1.26 1.24h2.53v2.49h-2.53v3.6c0 .75-.63 1.25-1.26 1.25zm-3.53 0h-9.1l4.55 4.35z"/></defs><use fill="#dc2c3d" xlink:href="#a" transform="translate(-1343 -7886)"/></svg>